<svg xmlns="http://www.w3.org/2000/svg" xmlns:xlink="http://www.w3.org/1999/xlink" width="150" zoomAndPan="magnify" viewBox="0 0 112.5 30.000001" height="40" preserveAspectRatio="xMidYMid meet" version="1.0"><defs><g/></defs><g fill="#af8862" fill-opacity="0.4"><g transform="translate(7.164394, 22.855891)"><g><path d="M 0.75 0 L 0.75 -17.125 L 4.1875 -17.125 L 4.1875 -2.90625 L 7.71875 -2.90625 L 7.71875 0 Z M 0.75 0 "/></g></g></g><g fill="#af8862" fill-opacity="0.4"><g transform="translate(15.073637, 22.855891)"><g><path d="M 4.71875 0.15625 C 3.3125 0.15625 2.265625 -0.238281 1.578125 -1.03125 C 0.898438 -1.832031 0.5625 -3.015625 0.5625 -4.578125 L 0.5625 -17.125 L 3.890625 -17.125 L 3.890625 -4.71875 C 3.890625 -4.175781 3.941406 -3.75 4.046875 -3.4375 C 4.148438 -3.132812 4.375 -2.984375 4.71875 -2.984375 C 5.070312 -2.984375 5.300781 -3.132812 5.40625 -3.4375 C 5.507812 -3.738281 5.5625 -4.164062 5.5625 -4.71875 L 5.5625 -17.125 L 8.890625 -17.125 L 8.890625 -4.578125 C 8.890625 -3.015625 8.546875 -1.832031 7.859375 -1.03125 C 7.179688 -0.238281 6.132812 0.15625 4.71875 0.15625 Z M 4.71875 0.15625 "/></g></g></g><g fill="#af8862" fill-opacity="0.4"><g transform="translate(24.516907, 22.855891)"><g><path d="M 0.265625 0 L 2.09375 -9.09375 L 0.640625 -17.140625 L 3.984375 -17.140625 L 4.890625 -11.25 L 5.65625 -17.140625 L 9.03125 -17.140625 L 7.5625 -9.09375 L 9.390625 0 L 5.921875 0 L 4.84375 -6.703125 L 3.75 0 Z M 0.265625 0 "/></g></g></g><g fill="#af8862" fill-opacity="0.4"><g transform="translate(34.159405, 22.855891)"><g><path d="M 0.75 0 L 0.75 -17.125 L 7.609375 -17.125 L 7.609375 -13.8125 L 4.25 -13.8125 L 4.25 -10.484375 L 7.484375 -10.484375 L 7.484375 -7.25 L 4.25 -7.25 L 4.25 -3.328125 L 7.828125 -3.328125 L 7.828125 0 Z M 0.75 0 "/></g></g></g><g fill="#af8862" fill-opacity="1"><g transform="translate(6.283342, 21.974838)"><g><path d="M 0.75 0 L 0.75 -17.125 L 4.1875 -17.125 L 4.1875 -2.90625 L 7.71875 -2.90625 L 7.71875 0 Z M 0.75 0 "/></g></g></g><g fill="#af8862" fill-opacity="1"><g transform="translate(14.192585, 21.974838)"><g><path d="M 4.71875 0.15625 C 3.3125 0.15625 2.265625 -0.238281 1.578125 -1.03125 C 0.898438 -1.832031 0.5625 -3.015625 0.5625 -4.578125 L 0.5625 -17.125 L 3.890625 -17.125 L 3.890625 -4.71875 C 3.890625 -4.175781 3.941406 -3.75 4.046875 -3.4375 C 4.148438 -3.132812 4.375 -2.984375 4.71875 -2.984375 C 5.070312 -2.984375 5.300781 -3.132812 5.40625 -3.4375 C 5.507812 -3.738281 5.5625 -4.164062 5.5625 -4.71875 L 5.5625 -17.125 L 8.890625 -17.125 L 8.890625 -4.578125 C 8.890625 -3.015625 8.546875 -1.832031 7.859375 -1.03125 C 7.179688 -0.238281 6.132812 0.15625 4.71875 0.15625 Z M 4.71875 0.15625 "/></g></g></g><g fill="#af8862" fill-opacity="1"><g transform="translate(23.635854, 21.974838)"><g><path d="M 0.265625 0 L 2.09375 -9.09375 L 0.640625 -17.140625 L 3.984375 -17.140625 L 4.890625 -11.25 L 5.65625 -17.140625 L 9.03125 -17.140625 L 7.5625 -9.09375 L 9.390625 0 L 5.921875 0 L 4.84375 -6.703125 L 3.75 0 Z M 0.265625 0 "/></g></g></g><g fill="#af8862" fill-opacity="1"><g transform="translate(33.278352, 21.974838)"><g><path d="M 0.75 0 L 0.75 -17.125 L 7.609375 -17.125 L 7.609375 -13.8125 L 4.25 -13.8125 L 4.25 -10.484375 L 7.484375 -10.484375 L 7.484375 -7.25 L 4.25 -7.25 L 4.25 -3.328125 L 7.828125 -3.328125 L 7.828125 0 Z M 0.75 0 "/></g></g></g><g fill="#af8862" fill-opacity="0.4"><g transform="translate(42.372439, 22.855891)"><g/></g></g><g fill="#af8862" fill-opacity="0.4"><g transform="translate(47.034311, 22.855891)"><g/></g></g><g fill="#af8862" fill-opacity="0.4"><g transform="translate(51.696183, 22.855891)"><g/></g></g><g fill="#af8862" fill-opacity="1"><g transform="translate(41.491386, 21.974838)"><g/></g></g><g fill="#af8862" fill-opacity="1"><g transform="translate(46.153258, 21.974838)"><g/></g></g><g fill="#af8862" fill-opacity="1"><g transform="translate(50.81513, 21.974838)"><g/></g></g><g fill="#af8862" fill-opacity="0.4"><g transform="translate(56.369784, 22.855891)"><g><path d="M 4.828125 0.15625 C 3.273438 0.15625 2.148438 -0.226562 1.453125 -1 C 0.765625 -1.769531 0.421875 -3.007812 0.421875 -4.71875 L 0.421875 -6.40625 L 3.78125 -6.40625 L 3.78125 -4.265625 C 3.78125 -3.410156 4.054688 -2.984375 4.609375 -2.984375 C 4.910156 -2.984375 5.117188 -3.070312 5.234375 -3.25 C 5.359375 -3.4375 5.421875 -3.742188 5.421875 -4.171875 C 5.421875 -4.722656 5.351562 -5.179688 5.21875 -5.546875 C 5.09375 -5.910156 4.925781 -6.21875 4.71875 -6.46875 C 4.507812 -6.71875 4.140625 -7.097656 3.609375 -7.609375 L 2.140625 -9.09375 C 0.992188 -10.207031 0.421875 -11.441406 0.421875 -12.796875 C 0.421875 -14.265625 0.753906 -15.378906 1.421875 -16.140625 C 2.097656 -16.898438 3.078125 -17.28125 4.359375 -17.28125 C 5.898438 -17.28125 7.007812 -16.867188 7.6875 -16.046875 C 8.375 -15.234375 8.71875 -13.957031 8.71875 -12.21875 L 5.21875 -12.21875 L 5.203125 -13.390625 C 5.203125 -13.617188 5.140625 -13.800781 5.015625 -13.9375 C 4.890625 -14.070312 4.710938 -14.140625 4.484375 -14.140625 C 4.222656 -14.140625 4.023438 -14.066406 3.890625 -13.921875 C 3.753906 -13.773438 3.6875 -13.570312 3.6875 -13.3125 C 3.6875 -12.757812 4.003906 -12.179688 4.640625 -11.578125 L 6.640625 -9.671875 C 7.109375 -9.210938 7.492188 -8.78125 7.796875 -8.375 C 8.097656 -7.976562 8.34375 -7.503906 8.53125 -6.953125 C 8.71875 -6.398438 8.8125 -5.742188 8.8125 -4.984375 C 8.8125 -3.296875 8.5 -2.015625 7.875 -1.140625 C 7.257812 -0.273438 6.242188 0.15625 4.828125 0.15625 Z M 4.828125 0.15625 "/></g></g></g><g fill="#af8862" fill-opacity="0.4"><g transform="translate(65.554067, 22.855891)"><g><path d="M 0.75 0 L 0.75 -17.125 L 4.171875 -17.125 L 4.171875 -11 L 5.78125 -11 L 5.78125 -17.125 L 9.1875 -17.125 L 9.1875 0 L 5.78125 0 L 5.78125 -7.78125 L 4.171875 -7.78125 L 4.171875 0 Z M 0.75 0 "/></g></g></g><g fill="#af8862" fill-opacity="0.4"><g transform="translate(75.495397, 22.855891)"><g><path d="M 0.59375 0 L 0.59375 -17.125 L 3.90625 -17.125 L 3.90625 0 Z M 0.59375 0 "/></g></g></g><g fill="#af8862" fill-opacity="0.4"><g transform="translate(80.017809, 22.855891)"><g><path d="M 0.75 -17.125 L 6.015625 -17.125 C 6.859375 -17.125 7.507812 -16.929688 7.96875 -16.546875 C 8.425781 -16.171875 8.734375 -15.640625 8.890625 -14.953125 C 9.046875 -14.273438 9.125 -13.40625 9.125 -12.34375 C 9.125 -11.375 9 -10.613281 8.75 -10.0625 C 8.5 -9.519531 8.0625 -9.144531 7.4375 -8.9375 C 7.957031 -8.820312 8.332031 -8.554688 8.5625 -8.140625 C 8.789062 -7.734375 8.90625 -7.179688 8.90625 -6.484375 L 8.875 0 L 5.515625 0 L 5.515625 -6.703125 C 5.515625 -7.179688 5.421875 -7.484375 5.234375 -7.609375 C 5.054688 -7.742188 4.722656 -7.8125 4.234375 -7.8125 L 4.234375 0 L 0.75 0 Z M 5.0625 -10.78125 C 5.539062 -10.78125 5.78125 -11.300781 5.78125 -12.34375 C 5.78125 -12.789062 5.757812 -13.128906 5.71875 -13.359375 C 5.675781 -13.585938 5.601562 -13.742188 5.5 -13.828125 C 5.394531 -13.910156 5.242188 -13.953125 5.046875 -13.953125 L 4.25 -13.953125 L 4.25 -10.78125 Z M 5.0625 -10.78125 "/></g></g></g><g fill="#af8862" fill-opacity="0.4"><g transform="translate(89.520847, 22.855891)"><g><path d="M 2.234375 0 L 2.234375 -13.84375 L 0.203125 -13.84375 L 0.203125 -17.125 L 7.703125 -17.125 L 7.703125 -13.84375 L 5.65625 -13.84375 L 5.65625 0 Z M 2.234375 0 "/></g></g></g><g fill="#af8862" fill-opacity="0.4"><g transform="translate(97.410167, 22.855891)"><g><path d="M 4.828125 0.15625 C 3.273438 0.15625 2.148438 -0.226562 1.453125 -1 C 0.765625 -1.769531 0.421875 -3.007812 0.421875 -4.71875 L 0.421875 -6.40625 L 3.78125 -6.40625 L 3.78125 -4.265625 C 3.78125 -3.410156 4.054688 -2.984375 4.609375 -2.984375 C 4.910156 -2.984375 5.117188 -3.070312 5.234375 -3.25 C 5.359375 -3.4375 5.421875 -3.742188 5.421875 -4.171875 C 5.421875 -4.722656 5.351562 -5.179688 5.21875 -5.546875 C 5.09375 -5.910156 4.925781 -6.21875 4.71875 -6.46875 C 4.507812 -6.71875 4.140625 -7.097656 3.609375 -7.609375 L 2.140625 -9.09375 C 0.992188 -10.207031 0.421875 -11.441406 0.421875 -12.796875 C 0.421875 -14.265625 0.753906 -15.378906 1.421875 -16.140625 C 2.097656 -16.898438 3.078125 -17.28125 4.359375 -17.28125 C 5.898438 -17.28125 7.007812 -16.867188 7.6875 -16.046875 C 8.375 -15.234375 8.71875 -13.957031 8.71875 -12.21875 L 5.21875 -12.21875 L 5.203125 -13.390625 C 5.203125 -13.617188 5.140625 -13.800781 5.015625 -13.9375 C 4.890625 -14.070312 4.710938 -14.140625 4.484375 -14.140625 C 4.222656 -14.140625 4.023438 -14.066406 3.890625 -13.921875 C 3.753906 -13.773438 3.6875 -13.570312 3.6875 -13.3125 C 3.6875 -12.757812 4.003906 -12.179688 4.640625 -11.578125 L 6.640625 -9.671875 C 7.109375 -9.210938 7.492188 -8.78125 7.796875 -8.375 C 8.097656 -7.976562 8.34375 -7.503906 8.53125 -6.953125 C 8.71875 -6.398438 8.8125 -5.742188 8.8125 -4.984375 C 8.8125 -3.296875 8.5 -2.015625 7.875 -1.140625 C 7.257812 -0.273438 6.242188 0.15625 4.828125 0.15625 Z M 4.828125 0.15625 "/></g></g></g><g fill="#af8862" fill-opacity="1"><g transform="translate(55.488731, 21.974838)"><g><path d="M 4.828125 0.15625 C 3.273438 0.15625 2.148438 -0.226562 1.453125 -1 C 0.765625 -1.769531 0.421875 -3.007812 0.421875 -4.71875 L 0.421875 -6.40625 L 3.78125 -6.40625 L 3.78125 -4.265625 C 3.78125 -3.410156 4.054688 -2.984375 4.609375 -2.984375 C 4.910156 -2.984375 5.117188 -3.070312 5.234375 -3.25 C 5.359375 -3.4375 5.421875 -3.742188 5.421875 -4.171875 C 5.421875 -4.722656 5.351562 -5.179688 5.21875 -5.546875 C 5.09375 -5.910156 4.925781 -6.21875 4.71875 -6.46875 C 4.507812 -6.71875 4.140625 -7.097656 3.609375 -7.609375 L 2.140625 -9.09375 C 0.992188 -10.207031 0.421875 -11.441406 0.421875 -12.796875 C 0.421875 -14.265625 0.753906 -15.378906 1.421875 -16.140625 C 2.097656 -16.898438 3.078125 -17.28125 4.359375 -17.28125 C 5.898438 -17.28125 7.007812 -16.867188 7.6875 -16.046875 C 8.375 -15.234375 8.71875 -13.957031 8.71875 -12.21875 L 5.21875 -12.21875 L 5.203125 -13.390625 C 5.203125 -13.617188 5.140625 -13.800781 5.015625 -13.9375 C 4.890625 -14.070312 4.710938 -14.140625 4.484375 -14.140625 C 4.222656 -14.140625 4.023438 -14.066406 3.890625 -13.921875 C 3.753906 -13.773438 3.6875 -13.570312 3.6875 -13.3125 C 3.6875 -12.757812 4.003906 -12.179688 4.640625 -11.578125 L 6.640625 -9.671875 C 7.109375 -9.210938 7.492188 -8.78125 7.796875 -8.375 C 8.097656 -7.976562 8.34375 -7.503906 8.53125 -6.953125 C 8.71875 -6.398438 8.8125 -5.742188 8.8125 -4.984375 C 8.8125 -3.296875 8.5 -2.015625 7.875 -1.140625 C 7.257812 -0.273438 6.242188 0.15625 4.828125 0.15625 Z M 4.828125 0.15625 "/></g></g></g><g fill="#af8862" fill-opacity="1"><g transform="translate(64.673015, 21.974838)"><g><path d="M 0.75 0 L 0.75 -17.125 L 4.171875 -17.125 L 4.171875 -11 L 5.78125 -11 L 5.78125 -17.125 L 9.1875 -17.125 L 9.1875 0 L 5.78125 0 L 5.78125 -7.78125 L 4.171875 -7.78125 L 4.171875 0 Z M 0.75 0 "/></g></g></g><g fill="#af8862" fill-opacity="1"><g transform="translate(74.614344, 21.974838)"><g><path d="M 0.59375 0 L 0.59375 -17.125 L 3.90625 -17.125 L 3.90625 0 Z M 0.59375 0 "/></g></g></g><g fill="#af8862" fill-opacity="1"><g transform="translate(79.136756, 21.974838)"><g><path d="M 0.75 -17.125 L 6.015625 -17.125 C 6.859375 -17.125 7.507812 -16.929688 7.96875 -16.546875 C 8.425781 -16.171875 8.734375 -15.640625 8.890625 -14.953125 C 9.046875 -14.273438 9.125 -13.40625 9.125 -12.34375 C 9.125 -11.375 9 -10.613281 8.75 -10.0625 C 8.5 -9.519531 8.0625 -9.144531 7.4375 -8.9375 C 7.957031 -8.820312 8.332031 -8.554688 8.5625 -8.140625 C 8.789062 -7.734375 8.90625 -7.179688 8.90625 -6.484375 L 8.875 0 L 5.515625 0 L 5.515625 -6.703125 C 5.515625 -7.179688 5.421875 -7.484375 5.234375 -7.609375 C 5.054688 -7.742188 4.722656 -7.8125 4.234375 -7.8125 L 4.234375 0 L 0.75 0 Z M 5.0625 -10.78125 C 5.539062 -10.78125 5.78125 -11.300781 5.78125 -12.34375 C 5.78125 -12.789062 5.757812 -13.128906 5.71875 -13.359375 C 5.675781 -13.585938 5.601562 -13.742188 5.5 -13.828125 C 5.394531 -13.910156 5.242188 -13.953125 5.046875 -13.953125 L 4.25 -13.953125 L 4.25 -10.78125 Z M 5.0625 -10.78125 "/></g></g></g><g fill="#af8862" fill-opacity="1"><g transform="translate(88.639794, 21.974838)"><g><path d="M 2.234375 0 L 2.234375 -13.84375 L 0.203125 -13.84375 L 0.203125 -17.125 L 7.703125 -17.125 L 7.703125 -13.84375 L 5.65625 -13.84375 L 5.65625 0 Z M 2.234375 0 "/></g></g></g><g fill="#af8862" fill-opacity="1"><g transform="translate(96.529114, 21.974838)"><g><path d="M 4.828125 0.15625 C 3.273438 0.15625 2.148438 -0.226562 1.453125 -1 C 0.765625 -1.769531 0.421875 -3.007812 0.421875 -4.71875 L 0.421875 -6.40625 L 3.78125 -6.40625 L 3.78125 -4.265625 C 3.78125 -3.410156 4.054688 -2.984375 4.609375 -2.984375 C 4.910156 -2.984375 5.117188 -3.070312 5.234375 -3.25 C 5.359375 -3.4375 5.421875 -3.742188 5.421875 -4.171875 C 5.421875 -4.722656 5.351562 -5.179688 5.21875 -5.546875 C 5.09375 -5.910156 4.925781 -6.21875 4.71875 -6.46875 C 4.507812 -6.71875 4.140625 -7.097656 3.609375 -7.609375 L 2.140625 -9.09375 C 0.992188 -10.207031 0.421875 -11.441406 0.421875 -12.796875 C 0.421875 -14.265625 0.753906 -15.378906 1.421875 -16.140625 C 2.097656 -16.898438 3.078125 -17.28125 4.359375 -17.28125 C 5.898438 -17.28125 7.007812 -16.867188 7.6875 -16.046875 C 8.375 -15.234375 8.71875 -13.957031 8.71875 -12.21875 L 5.21875 -12.21875 L 5.203125 -13.390625 C 5.203125 -13.617188 5.140625 -13.800781 5.015625 -13.9375 C 4.890625 -14.070312 4.710938 -14.140625 4.484375 -14.140625 C 4.222656 -14.140625 4.023438 -14.066406 3.890625 -13.921875 C 3.753906 -13.773438 3.6875 -13.570312 3.6875 -13.3125 C 3.6875 -12.757812 4.003906 -12.179688 4.640625 -11.578125 L 6.640625 -9.671875 C 7.109375 -9.210938 7.492188 -8.78125 7.796875 -8.375 C 8.097656 -7.976562 8.34375 -7.503906 8.53125 -6.953125 C 8.71875 -6.398438 8.8125 -5.742188 8.8125 -4.984375 C 8.8125 -3.296875 8.5 -2.015625 7.875 -1.140625 C 7.257812 -0.273438 6.242188 0.15625 4.828125 0.15625 Z M 4.828125 0.15625 "/></g></g></g><g fill="#d6ac82" fill-opacity="0.4"><g transform="translate(45.73552, 20.202803)"><g><path d="M 1.4375 0.140625 C 0.945312 0.140625 0.554688 0.0195312 0.265625 -0.21875 C -0.015625 -0.457031 -0.15625 -0.890625 -0.15625 -1.515625 C -0.15625 -1.867188 -0.0507812 -2.320312 0.15625 -2.875 C 0.375 -3.425781 0.644531 -4.019531 0.96875 -4.65625 C 1.300781 -5.289062 1.628906 -5.921875 1.953125 -6.546875 C 1.753906 -6.492188 1.578125 -6.46875 1.421875 -6.46875 C 0.953125 -6.46875 0.71875 -6.644531 0.71875 -7 C 0.71875 -7.175781 0.785156 -7.3125 0.921875 -7.40625 C 1.054688 -7.5 1.175781 -7.550781 1.28125 -7.5625 C 1.28125 -7.5625 1.296875 -7.5625 1.328125 -7.5625 C 1.367188 -7.5625 1.421875 -7.570312 1.484375 -7.59375 L 2.84375 -7.59375 C 3.125 -7.945312 3.410156 -8.328125 3.703125 -8.734375 C 4.117188 -9.253906 4.453125 -9.5625 4.703125 -9.65625 L 4.765625 -9.65625 C 4.878906 -9.65625 5.035156 -9.601562 5.234375 -9.5 C 5.484375 -9.363281 5.609375 -9.222656 5.609375 -9.078125 C 5.609375 -8.878906 5.238281 -8.359375 4.5 -7.515625 C 4.632812 -7.503906 4.832031 -7.5 5.09375 -7.5 C 5.363281 -7.5 5.691406 -7.5 6.078125 -7.5 C 6.265625 -7.5 6.53125 -7.5 6.875 -7.5 C 7.226562 -7.5 7.59375 -7.5 7.96875 -7.5 C 8.351562 -7.507812 8.679688 -7.519531 8.953125 -7.53125 C 9.234375 -7.539062 9.390625 -7.546875 9.421875 -7.546875 C 9.472656 -7.523438 9.5 -7.5 9.5 -7.46875 C 9.5 -7.332031 8.582031 -7.148438 6.75 -6.921875 C 5.707031 -6.773438 4.910156 -6.660156 4.359375 -6.578125 C 3.804688 -6.503906 3.507812 -6.460938 3.46875 -6.453125 C 3.25 -6.265625 2.984375 -5.941406 2.671875 -5.484375 C 2.367188 -5.035156 2.0625 -4.53125 1.75 -3.96875 C 1.4375 -3.414062 1.175781 -2.882812 0.96875 -2.375 C 0.757812 -1.875 0.65625 -1.484375 0.65625 -1.203125 C 0.65625 -0.960938 0.742188 -0.757812 0.921875 -0.59375 C 1.109375 -0.425781 1.414062 -0.34375 1.84375 -0.34375 C 2.125 -0.34375 2.457031 -0.40625 2.84375 -0.53125 C 3.226562 -0.65625 3.59375 -0.796875 3.9375 -0.953125 C 4.289062 -1.117188 4.546875 -1.25 4.703125 -1.34375 C 5.109375 -1.59375 5.554688 -1.921875 6.046875 -2.328125 C 6.535156 -2.742188 7.019531 -3.21875 7.5 -3.75 C 7.71875 -3.96875 7.863281 -4.078125 7.9375 -4.078125 C 7.988281 -4.078125 8.015625 -4.046875 8.015625 -3.984375 C 8.015625 -3.859375 7.894531 -3.65625 7.65625 -3.375 C 7.28125 -2.925781 6.863281 -2.492188 6.40625 -2.078125 C 5.957031 -1.671875 5.453125 -1.296875 4.890625 -0.953125 C 4.253906 -0.566406 3.644531 -0.285156 3.0625 -0.109375 C 2.476562 0.0546875 1.9375 0.140625 1.4375 0.140625 Z M 1.4375 0.140625 "/></g></g></g><g fill="#fff7ef" fill-opacity="1"><g transform="translate(44.706348, 19.173631)"><g><path d="M 1.4375 0.140625 C 0.945312 0.140625 0.554688 0.0195312 0.265625 -0.21875 C -0.015625 -0.457031 -0.15625 -0.890625 -0.15625 -1.515625 C -0.15625 -1.867188 -0.0507812 -2.320312 0.15625 -2.875 C 0.375 -3.425781 0.644531 -4.019531 0.96875 -4.65625 C 1.300781 -5.289062 1.628906 -5.921875 1.953125 -6.546875 C 1.753906 -6.492188 1.578125 -6.46875 1.421875 -6.46875 C 0.953125 -6.46875 0.71875 -6.644531 0.71875 -7 C 0.71875 -7.175781 0.785156 -7.3125 0.921875 -7.40625 C 1.054688 -7.5 1.175781 -7.550781 1.28125 -7.5625 C 1.28125 -7.5625 1.296875 -7.5625 1.328125 -7.5625 C 1.367188 -7.5625 1.421875 -7.570312 1.484375 -7.59375 L 2.84375 -7.59375 C 3.125 -7.945312 3.410156 -8.328125 3.703125 -8.734375 C 4.117188 -9.253906 4.453125 -9.5625 4.703125 -9.65625 L 4.765625 -9.65625 C 4.878906 -9.65625 5.035156 -9.601562 5.234375 -9.5 C 5.484375 -9.363281 5.609375 -9.222656 5.609375 -9.078125 C 5.609375 -8.878906 5.238281 -8.359375 4.5 -7.515625 C 4.632812 -7.503906 4.832031 -7.5 5.09375 -7.5 C 5.363281 -7.5 5.691406 -7.5 6.078125 -7.5 C 6.265625 -7.5 6.53125 -7.5 6.875 -7.5 C 7.226562 -7.5 7.59375 -7.5 7.96875 -7.5 C 8.351562 -7.507812 8.679688 -7.519531 8.953125 -7.53125 C 9.234375 -7.539062 9.390625 -7.546875 9.421875 -7.546875 C 9.472656 -7.523438 9.5 -7.5 9.5 -7.46875 C 9.5 -7.332031 8.582031 -7.148438 6.75 -6.921875 C 5.707031 -6.773438 4.910156 -6.660156 4.359375 -6.578125 C 3.804688 -6.503906 3.507812 -6.460938 3.46875 -6.453125 C 3.25 -6.265625 2.984375 -5.941406 2.671875 -5.484375 C 2.367188 -5.035156 2.0625 -4.53125 1.75 -3.96875 C 1.4375 -3.414062 1.175781 -2.882812 0.96875 -2.375 C 0.757812 -1.875 0.65625 -1.484375 0.65625 -1.203125 C 0.65625 -0.960938 0.742188 -0.757812 0.921875 -0.59375 C 1.109375 -0.425781 1.414062 -0.34375 1.84375 -0.34375 C 2.125 -0.34375 2.457031 -0.40625 2.84375 -0.53125 C 3.226562 -0.65625 3.59375 -0.796875 3.9375 -0.953125 C 4.289062 -1.117188 4.546875 -1.25 4.703125 -1.34375 C 5.109375 -1.59375 5.554688 -1.921875 6.046875 -2.328125 C 6.535156 -2.742188 7.019531 -3.21875 7.5 -3.75 C 7.71875 -3.96875 7.863281 -4.078125 7.9375 -4.078125 C 7.988281 -4.078125 8.015625 -4.046875 8.015625 -3.984375 C 8.015625 -3.859375 7.894531 -3.65625 7.65625 -3.375 C 7.28125 -2.925781 6.863281 -2.492188 6.40625 -2.078125 C 5.957031 -1.671875 5.453125 -1.296875 4.890625 -0.953125 C 4.253906 -0.566406 3.644531 -0.285156 3.0625 -0.109375 C 2.476562 0.0546875 1.9375 0.140625 1.4375 0.140625 Z M 1.4375 0.140625 "/></g></g></g><g fill="#d6ac82" fill-opacity="0.4"><g transform="translate(52.658093, 20.202803)"><g/></g></g><g fill="#fff7ef" fill-opacity="1"><g transform="translate(51.62892, 19.173631)"><g/></g></g></svg>